<svg xmlns="http://www.w3.org/2000/svg" viewBox="0 0 334.71 318.93"><title>favicon</title><g id="Capa_2" data-name="Capa 2"><g id="Capa_1-2" data-name="Capa 1"><path d="M296.51,317.38l-.26.13c-.52.26-12.83,6.14-31.26-15l-1.22-.09c-28.15-2-102.7-7.38-158-70.48a4.89,4.89,0,0,0-1.73-1.26c-15.17-6.59-28.47-12.17-40.23-17.11-39.35-16.5-59.1-24.79-61.78-34.73-.93-3.43.1-7,3.25-11.13,6.45-7.78,12.9-5.62,74.53,15.17l3.55,1.2a4.9,4.9,0,0,0,6.34-3.39c1.88-7.75,7.67-15,11.72-19.3a5,5,0,0,0,.34-6.31,9.4,9.4,0,0,1-1.69-5.62c.22-10.45,16.17-22.94,47.41-37.12l.37-.16a92.21,92.21,0,0,1,23.45-5.55,4.92,4.92,0,0,0,4-7c-8.07-17.46-22.86-60.15,7.69-90h0c4.49-3.88,15.81-8.88,22.54-5.15,4.64,2.58,6.3,8.59,4.93,17.85a4.68,4.68,0,0,1-.2.84c-3,9.3-10.13,32.75,19.41,69.4C242,108.18,253,128.27,262.6,146c8.77,16.1,16.34,30,22.54,36,5.89,5.67,14.62,11.56,23.07,17.26,10.3,6.94,20,13.51,23.57,19,6.37,9.92-30.88,89.79-35.15,98.87ZM8.06,167.21a11.63,11.63,0,0,0-1.45,1.51c-2.79,3.69-3.73,6.77-2.95,9.67,2.47,9.16,22,17.34,60.83,33.64,12.07,5.07,25.75,10.81,41.43,17.63l.29.21c54.9,63.49,129.57,68.86,157.68,70.88l1.9.14.22.26c12.22,14.13,21.61,15.85,26.27,15.56a4.82,4.82,0,0,0,4-2.82c12.16-26.11,38.88-87.25,34.07-94.73-3.36-5.24-12.95-11.7-23.11-18.55-8.5-5.74-17.3-11.67-23.29-17.45-6.38-6.15-14-20.16-22.84-36.38-9.61-17.66-20.51-37.68-32.75-53.14-30.09-37.33-22.81-61.38-19.72-70.8a5,5,0,0,0,.2-.87c1.23-8.37-.15-13.79-4.13-16-5.88-3.26-16.25,1.28-20.42,4.74l-.4.37c-37.77,37.21-3.51,95-3.16,95.61l.82,1.37-1.59-.12c-.13,0-13.91-.91-31.48,5.75a2.75,2.75,0,0,0-.36.15c-38.08,17.29-46.26,28.92-46.4,35.63-.11,5.18,4.74,7.68,4.78,7.71l1.1.55-.93.81c-.17.15-17.14,15-15.88,28.54l.12,1.27-11.62-3.92C23.65,165.64,13.74,162.3,8.06,167.21Z"/><path d="M296.74,317.61a5.35,5.35,0,0,1-1.18.56,9.45,9.45,0,0,1-1.15.34,13.37,13.37,0,0,1-2.35.37,19.89,19.89,0,0,1-4.75-.26,27.27,27.27,0,0,1-8.82-3.34,44.74,44.74,0,0,1-4-2.53c-1.27-.92-2.48-1.92-3.71-2.9s-2.33-2.1-3.46-3.19l-3.25-3.38.82.41c-21.23-.83-42.61-3.56-63.26-9.33a217.62,217.62,0,0,1-30.32-10.74c-9.7-4.58-19.34-9.45-28.25-15.51-2.24-1.5-4.52-2.94-6.71-4.5l-6.4-4.94a159,159,0,0,1-12.29-10.47l-3-2.71c-1-.92-1.87-1.93-2.81-2.9l-5.58-5.85-2.73-2.89a1.8,1.8,0,0,0-.63-.47l-1.78-.76-7.32-3.13c-9.76-4.14-19.49-8.37-29.22-12.6S45.11,208.46,35.41,204c-4.84-2.2-9.67-4.51-14.43-7a83.44,83.44,0,0,1-13.85-8.62,21.22,21.22,0,0,1-5.71-6.5,12,12,0,0,1-1.37-4.44,11.63,11.63,0,0,1,.54-4.6,17.25,17.25,0,0,1,1.9-4,18.54,18.54,0,0,1,2.67-3.41,16.41,16.41,0,0,1,1.72-1.47,15.05,15.05,0,0,1,2.05-1.11,13.58,13.58,0,0,1,4.41-.83l2.14,0,2.06.25c1.39.13,2.68.49,4,.73,2.64.6,5.24,1.26,7.8,2,5.14,1.47,10.19,3.12,15.24,4.79L74.79,180.1l7.55,2.54c.6.19,1.34.46,1.79.57a4,4,0,0,0,1.57,0,3.9,3.9,0,0,0,2.54-1.69,3.68,3.68,0,0,0,.34-.69c.08-.24.15-.49.25-.86.17-.67.36-1.33.59-2a31.56,31.56,0,0,1,1.56-3.8,47.27,47.27,0,0,1,4.19-7,67,67,0,0,1,5.11-6.28c1.7-1.63,1.73-3.8.16-5.81A10.63,10.63,0,0,1,99,150.93a8.68,8.68,0,0,1,0-2.22,10.37,10.37,0,0,1,.36-2.16,20.1,20.1,0,0,1,3.92-7.45c3.4-4.38,7.7-7.75,12-10.91a141.07,141.07,0,0,1,13.64-8.52c4.67-2.62,9.43-5,14.24-7.37l3.62-1.74c1.43-.59,2.58-1,3.89-1.47,2.56-.89,5.16-1.68,7.78-2.35s5.29-1.24,8-1.69c1.34-.23,2.69-.42,4-.58a4.89,4.89,0,0,0,1.36-.27,2.37,2.37,0,0,0,.86-.61,2.57,2.57,0,0,0,.74-1.93,2.73,2.73,0,0,0-.25-1l-.86-1.82c-1.12-2.46-2.18-5-3.14-7.48a110.36,110.36,0,0,1-7.25-31.7,79.14,79.14,0,0,1,.63-16.48,63.62,63.62,0,0,1,4.58-16,60.09,60.09,0,0,1,8.7-14.25c.92-1.06,1.75-2.15,2.75-3.17l1.48-1.54.74-.77c.4-.38.63-.53,1-.81a33.08,33.08,0,0,1,7.66-4.34A30.38,30.38,0,0,1,198.05.08a18.56,18.56,0,0,1,4.8.16,16.4,16.4,0,0,1,2.48.63,15.26,15.26,0,0,1,2.4,1.18,12.4,12.4,0,0,1,3.81,3.75,15.75,15.75,0,0,1,2,4.61,28.31,28.31,0,0,1,.64,9c-.07.71-.11,1.43-.21,2.13l-.13,1.06,0,.26-.08.4-.19.8c-.43,1.41-.77,2.5-1.11,3.75a48.38,48.38,0,0,0-1.38,7.3,49.29,49.29,0,0,0,.67,14.83,33.24,33.24,0,0,0,.81,3.66,35.77,35.77,0,0,0,1,3.64l1.2,3.59,1.47,3.52.73,1.76.86,1.71,1.72,3.43c1.25,2.23,2.57,4.44,3.9,6.64s2.86,4.3,4.36,6.4l4.73,6.2c3.38,4.29,6.47,8.7,9.44,13.19,11.82,18,21.4,37.1,31.53,55.6,2.56,4.61,5.18,9.17,8,13.46a55.22,55.22,0,0,0,4.54,6,59.62,59.62,0,0,0,5.52,5.12c8,6.58,17,12.28,25.68,18.46A101,101,0,0,1,330,212.54a31.9,31.9,0,0,1,2.85,3.23,11.52,11.52,0,0,1,1.35,2.23,8.93,8.93,0,0,1,.52,2.6,32,32,0,0,1-1,8.51A146.26,146.26,0,0,1,329,244.57c-1.79,5-3.71,10-5.7,14.95-4,9.89-8.31,19.59-12.73,29.26q-3.33,7.25-6.76,14.43l-3.48,7.17L298.58,314l-.88,1.78-.45.89C297.08,317,297,317.17,296.74,317.61Zm-.47-.46,6.24-14.53q3.14-7.32,6.16-14.67,6.06-14.71,11.59-29.61c1.83-5,3.59-9.95,5.2-15a141.35,141.35,0,0,0,4.1-15.13,28.51,28.51,0,0,0,.69-7.28,5.14,5.14,0,0,0-.28-1.28,12.26,12.26,0,0,0-.78-1.13,26.87,26.87,0,0,0-2.5-2.65,108,108,0,0,0-12.34-9.4c-8.7-5.95-17.81-11.49-26.35-18.25a62.79,62.79,0,0,1-6.24-5.59,62.63,62.63,0,0,1-5.16-6.59c-3.11-4.49-5.86-9.1-8.54-13.73-10.67-18.49-20.22-37.4-31.91-54.82-2.91-4.34-6-8.59-9.17-12.64l-4.92-6.47c-1.58-2.22-3.07-4.51-4.6-6.76s-2.81-4.7-4.14-7.09l-1.85-3.69L210.55,69l-.8-1.92-1.59-3.83-1.32-4c-.48-1.3-.77-2.68-1.13-4a35.59,35.59,0,0,1-.88-4.1,55.51,55.51,0,0,1-.57-16.88,52.78,52.78,0,0,1,1.65-8.3c.36-1.32.83-2.76,1.18-3.88a.94.94,0,0,1,0-.16l0-.1,0-.23.13-.91c.09-.62.13-1.22.2-1.83a22.17,22.17,0,0,0-.37-6.84,7,7,0,0,0-2.9-4.49,9.22,9.22,0,0,0-5.66-1.08,24.76,24.76,0,0,0-6.76,1.7,27.45,27.45,0,0,0-6.2,3.41c-.18.15-.49.38-.57.46l-.64.66L183.13,14c-.87.86-1.66,1.89-2.49,2.82a54.2,54.2,0,0,0-8,12.77,60.29,60.29,0,0,0-4.35,14.47,73.35,73.35,0,0,0-.85,15.26,104.68,104.68,0,0,0,6.38,30.28c.88,2.45,1.82,4.89,2.84,7.28l.79,1.81a7.48,7.48,0,0,1,.62,2.85,7.22,7.22,0,0,1-2.18,5.24,7,7,0,0,1-2.43,1.57,9.06,9.06,0,0,1-2.53.5c-1.29.12-2.57.26-3.86.44-2.56.37-5.12.83-7.64,1.41s-5,1.27-7.52,2.06l-1.85.62c-.57.2-1.32.45-1.74.62l-3.6,1.61q-7.23,3.24-14.22,6.93a138.22,138.22,0,0,0-13.55,8c-4.29,3-8.51,6.15-11.72,10.1a16.64,16.64,0,0,0-3.56,6.46,7.57,7.57,0,0,0-.31,1.75,6.42,6.42,0,0,0,0,1.75,8.2,8.2,0,0,0,1.11,3.27,9.44,9.44,0,0,1,1,1.94,6.45,6.45,0,0,1,.39,2.39,6,6,0,0,1-.57,2.38,6.36,6.36,0,0,1-.64,1.06c-.13.16-.27.31-.4.46l-.34.36a65,65,0,0,0-5,6,45.47,45.47,0,0,0-4,6.62,31.37,31.37,0,0,0-1.49,3.55c-.22.6-.4,1.21-.56,1.83-.08.27-.19.66-.32,1.05a6.55,6.55,0,0,1-.55,1.09,6,6,0,0,1-3.92,2.58,6.2,6.2,0,0,1-2.39-.05c-.83-.22-1.33-.43-2-.65L74.15,182c-10.07-3.34-20.12-6.76-30.24-9.93-5.06-1.57-10.13-3.13-15.22-4.48S18.38,164.92,13.46,165a8.1,8.1,0,0,0-6,2.69,15.92,15.92,0,0,0-2.13,2.91,14.08,14.08,0,0,0-1.45,3.24c-1.47,4.44,1.63,8.58,5.7,11.53a80.46,80.46,0,0,0,13.38,7.79c4.73,2.28,9.55,4.42,14.42,6.47,9.72,4.16,19.62,8,29.41,12.1s19.63,8.15,29.4,12.32l7.34,3.1,1.88.8a8,8,0,0,1,2.56,1.86l2.74,2.89,5.38,5.72c.9.94,1.76,1.93,2.7,2.83l2.9,2.64a154.33,154.33,0,0,0,11.86,10.26l6.17,4.84c2.12,1.52,4.33,2.94,6.49,4.41,8.57,6,17.87,10.9,27.28,15.52l7.22,3.11,3.62,1.55c1.21.51,2.45.93,3.68,1.39l7.38,2.75,7.52,2.38a243.65,243.65,0,0,0,30.73,7.24c10.41,1.75,20.9,2.94,31.47,3.9l.5.05.33.37,3,3.41c1.05,1.1,2.15,2.15,3.22,3.23s2.27,2,3.45,3a42.56,42.56,0,0,0,3.72,2.58,27.63,27.63,0,0,0,8.24,3.6A19.17,19.17,0,0,0,292,318a11.87,11.87,0,0,0,2.23-.22A9.63,9.63,0,0,0,296.27,317.15Z"/><path d="M8.28,167.46l-1.35,1.4c-.4.51-.77,1-1.13,1.61A14.36,14.36,0,0,0,4.13,174a8,8,0,0,0-.24,3.79,10.43,10.43,0,0,0,1.6,3.47c3.17,4.18,7.92,6.94,12.54,9.49s9.54,4.75,14.42,6.9,9.81,4.22,14.76,6.21l59.5,24,.17.07.22.16.3.21.13.09.19.21A222.13,222.13,0,0,0,140.85,258a210.78,210.78,0,0,0,38.7,21.33l5.1,2.16c1.72.68,3.47,1.27,5.2,1.9l5.22,1.88c1.73.63,3.52,1.1,5.29,1.65l5.3,1.64c1.76.55,3.57,1,5.35,1.43l5.38,1.39,5.42,1.19c7.23,1.6,14.56,2.8,21.9,3.87s14.77,1.69,22.23,2.31l.92.08.57.67a59.32,59.32,0,0,0,11.5,10.86,30.64,30.64,0,0,0,6.81,3.59,21.23,21.23,0,0,0,3.63.92,16.32,16.32,0,0,0,1.84.16c.3,0,.6,0,.9,0a3.39,3.39,0,0,0,.66-.09,3.25,3.25,0,0,0,2-1.65l1.76-3.66,3.5-7.41c2.32-4.95,4.61-9.92,6.81-14.92,4.43-10,8.75-20,12.69-30.23s7.87-20.47,9.92-31a24,24,0,0,0,.39-3.9c0-.3,0-.63,0-.92l-.14-.84-.26-.63-.55-.77a35.52,35.52,0,0,0-5.67-5.55c-4.19-3.4-8.71-6.45-13.24-9.51-9-6.18-18.46-11.82-26.76-19.36-4.2-4-7.22-8.68-10.22-13.31s-5.7-9.43-8.42-14.19c-5.43-9.53-10.69-19.12-16.23-28.51s-11.24-18.65-17.63-27.35c-1.62-2.19-3.25-4.27-4.94-6.41s-3.42-4.39-5.1-6.61-3.2-4.59-4.71-6.94l-2.16-3.62a41.26,41.26,0,0,1-2.06-3.68l-1.92-3.77c-.65-1.25-1.13-2.59-1.7-3.89-1.18-2.57-2-5.31-2.92-8a65.67,65.67,0,0,1-2.69-17,55.1,55.1,0,0,1,2.38-17.14l.62-2,.08-.24v-.1a1.33,1.33,0,0,1,0-.19c0-.19.08-.6.12-.88a32.06,32.06,0,0,0,.26-3.73,13.15,13.15,0,0,0-1.2-6.32c-.87-1.51-2.1-2.15-4.12-2.38a17.34,17.34,0,0,0-6.67,1.1,26.92,26.92,0,0,0-6.48,3.24,6.27,6.27,0,0,0-.68.49c-.23.18-.44.35-.52.43l-1.29,1.38c-.86,1-1.81,1.85-2.57,2.89A54.7,54.7,0,0,0,170.35,45.7c-1.45,10.29-.25,20.92,2.29,31.19A114.89,114.89,0,0,0,177.56,92a98.07,98.07,0,0,0,6.92,14.28l3.46,5.72-6.59-.63a58.62,58.62,0,0,0-12.44.47,91.17,91.17,0,0,0-12.42,2.54q-3.06.85-6.06,1.92l-.75.26-.21.08-.35.16-1.49.68-3,1.35c-2,.89-3.93,1.86-5.88,2.8s-3.89,1.92-5.82,2.9c-7.67,4-15.19,8.38-21.56,13.83-3.1,2.72-6,5.88-7.11,9.29a6,6,0,0,0,.31,4.75,7.5,7.5,0,0,0,1.59,2,8.69,8.69,0,0,0,1,.82l.21.13.36.19.73.39,2.67,1.41-2.27,1.85a61.58,61.58,0,0,0-6.35,6.07,56.13,56.13,0,0,0-5.43,6.89,35.84,35.84,0,0,0-4,7.68l-.58,2c-.19.68-.23,1.38-.36,2.07a11.06,11.06,0,0,0-.11,2.07,18.31,18.31,0,0,0,.08,2.18l.18,2-1.87-.67c-13.66-4.85-27.26-9.84-41-14.48-6.85-2.34-13.71-4.67-20.66-6.66a105,105,0,0,0-10.52-2.51c-.89-.11-1.78-.24-2.67-.32a18,18,0,0,0-2.65,0A7.71,7.71,0,0,0,8.28,167.46Zm-.43-.5A8.49,8.49,0,0,1,13,164.91a18.32,18.32,0,0,1,2.77,0c.92.08,1.82.21,2.73.31a105.67,105.67,0,0,1,10.63,2.44c7,2,13.91,4.14,20.81,6.33l41.43,13.18-1.7,1.34a18.92,18.92,0,0,1-.17-2.34,12.31,12.31,0,0,1,0-2.43,23.88,23.88,0,0,1,.33-2.4l.57-2.33a39,39,0,0,1,4-8.52,60.79,60.79,0,0,1,5.47-7.53,65.64,65.64,0,0,1,6.46-6.68l.4,3.26-.74-.36-.37-.18a4.32,4.32,0,0,1-.51-.28,11.55,11.55,0,0,1-1.6-1.14,11.4,11.4,0,0,1-2.6-3,10.08,10.08,0,0,1-1.31-3.95,11.82,11.82,0,0,1,.35-4.05,20.07,20.07,0,0,1,3.36-6.62c.73-.94,1.46-1.88,2.26-2.72s1.6-1.69,2.44-2.47c6.73-6.27,14.42-10.93,22.17-15.28,3.88-2.18,7.84-4.2,11.83-6.12l3-1.44,1.5-.71.39-.19.55-.23.8-.29c2.12-.8,4.28-1.53,6.45-2.18A91.34,91.34,0,0,1,168,105.32a64.72,64.72,0,0,1,13.82-.62l-3.13,5.1a106,106,0,0,1-7.52-15.18,122.06,122.06,0,0,1-5.34-16,87.18,87.18,0,0,1-2.48-33.89A60.67,60.67,0,0,1,177.2,13.32c.88-1.15,1.93-2.14,2.91-3.2.52-.54.95-1,1.54-1.61a10.58,10.58,0,0,1,1.06-.87,12.06,12.06,0,0,1,1-.71,33.3,33.3,0,0,1,8.2-4,23.72,23.72,0,0,1,9.44-1.36,13.18,13.18,0,0,1,5.29,1.66,11,11,0,0,1,4,4.17A19.21,19.21,0,0,1,212.56,17a36,36,0,0,1-.35,4.46c-.06.38-.08.67-.17,1.14l-.18.81-.11.4-.08.25-.6,1.89a48.63,48.63,0,0,0-2.28,15.21,60.22,60.22,0,0,0,2.28,15.36c.84,2.48,1.55,5,2.64,7.43.52,1.21.94,2.46,1.55,3.64L217,71.17c.55,1.2,1.22,2.36,1.89,3.51l2,3.46c1.4,2.28,2.93,4.48,4.39,6.72l4.81,6.48c1.66,2.18,3.37,4.43,5,6.68a297,297,0,0,1,17.37,28.17c5.33,9.61,10.34,19.36,15.49,29,2.57,4.81,5.19,9.6,8,14.24s5.71,9.26,9.41,12.91a117.9,117.9,0,0,0,12.56,10.23c4.4,3.21,8.94,6.25,13.47,9.34s9,6.22,13.33,9.76a37.93,37.93,0,0,1,6,6l.63.9a9.4,9.4,0,0,1,.52,1.27L332,221c0,.39,0,.75,0,1.13a25.49,25.49,0,0,1-.45,4.25,127,127,0,0,1-4.47,15.95c-1.74,5.21-3.63,10.36-5.58,15.48q-5.91,15.34-12.32,30.49l-6.46,15.11-3.29,7.53-1.69,3.79a6.47,6.47,0,0,1-5.44,3.72c-.38,0-.76,0-1.14,0-.76,0-1.51-.06-2.26-.13a25.26,25.26,0,0,1-4.34-1,33.93,33.93,0,0,1-7.79-3.81,63.25,63.25,0,0,1-12.64-11.25l1.49.75c-7.48-.41-15-.94-22.51-1.71-3.75-.49-7.51-.82-11.24-1.46l-5.61-.87c-1.87-.3-3.71-.72-5.57-1.07l-5.57-1.13-5.52-1.34c-1.84-.46-3.69-.85-5.51-1.38l-5.46-1.61c-1.81-.57-3.64-1-5.43-1.68l-5.36-1.91c-1.78-.65-3.59-1.25-5.35-1.94l-5.25-2.21-5.25-2.2c-1.73-.8-3.41-1.69-5.11-2.53-3.38-1.73-6.84-3.31-10.07-5.32l-4.92-2.88c-1.63-1-3.31-1.86-4.85-3l-9.38-6.47a206.8,206.8,0,0,1-33-31.19l.33.3-.29-.22.39.22L46.57,205.37c-9.73-4.43-19.59-8.62-29-13.86-4.62-2.66-9.42-5.4-12.74-9.83a11.34,11.34,0,0,1-1.7-3.76,8.79,8.79,0,0,1,.28-4.14,14.91,14.91,0,0,1,1.78-3.68,19.2,19.2,0,0,1,1.18-1.66Z"/><rect x="104.06" y="152" width="41.32" height="1.65" transform="translate(-39.95 44.22) rotate(-17.38)"/><path d="M145,147.59a50.36,50.36,0,0,1-8.17,4.5,64.22,64.22,0,0,1-10,3.7c-3.66.91-7.61,1.21-11.13,1.94a43.08,43.08,0,0,0-9.94,3.52l-1.16.56-.78-1.57-.74-1.5-.68-1.35,1.86-.91c1.57-.77,3.11-1.61,4.69-2.32s3.18-1.36,4.79-2c3.21-1.25,6.42-2.53,9.72-3.51a92.38,92.38,0,0,1,10.09-2.35,74.79,74.79,0,0,1,10.44-1.22l.95,0,.08.57A11.67,11.67,0,0,1,145,147.59Zm-.58-.3a10.45,10.45,0,0,0-1-1.18l1,.54a76,76,0,0,1-9.28,4.94,89.93,89.93,0,0,1-9.62,3.82c-3.28,1.08-6.64,1.85-10,2.66-1.68.4-3.35.8-5.07,1.09s-3.45.51-5.17.77l1.19-2.26.24,1.65-1.94-1a39.87,39.87,0,0,0,9.77-2.65c3.06-1.32,5.68-3.09,8.59-4.23a61.31,61.31,0,0,1,9.7-2.48C136.35,148.31,140,147.73,144.39,147.29Z"/><path d="M117,199.29l-30.5-12.38,1.85.13a4.82,4.82,0,0,0,.93,0c3.72-.44,29.1-3.37,32.35-4.2,7.54-.53,8.1-6.56,8.12-6.81l1.65.12c0,.08-.67,7.7-9.51,8.32-1.14.29-5,.81-9.69,1.41a4.94,4.94,0,0,0-1.07,9.53l6.36,2.32Z"/><path d="M117.13,199.51c-2.34-.57-4.84-1.25-7.41-2s-5.21-1.55-7.89-2.45-5.4-1.87-8.1-2.87-5.37-2.19-8-3.44L73.93,183l12.73,1.95,1.1.16c.34.05.8.13,1,.13l.35.06h.55l1.11,0,4.45-.09q4.44-.12,8.84-.64c2.92-.39,5.84-.81,8.73-1.42,1.45-.28,2.89-.61,4.33-.94s2.94-.67,4.12-1.06l.32,0a10.81,10.81,0,0,0,2.32-.66,6.37,6.37,0,0,0,1.84-1.14,4.56,4.56,0,0,0,1.21-1.61,6.4,6.4,0,0,0,.36-.95,3.65,3.65,0,0,0,.15-.87l1.4-2,1.14-.15,1.65.06h0a2.34,2.34,0,0,1,2.24,2.58v.07a12,12,0,0,1-1.21,4.21,11.21,11.21,0,0,1-6.46,5.68,14.68,14.68,0,0,1-4.06.83l.47-.08c-2.54.34-5.09.65-7.63.9l-1.91.19-.48,0-.28,0a1.65,1.65,0,0,0-.51.1,2.7,2.7,0,0,0-1.6,1.26,3.29,3.29,0,0,0,1,4.34,11.69,11.69,0,0,0,1.5.8l1.67.83c1.12.56,2.23,1.14,3.33,1.73l.48.25-.17.37C117.71,198.49,117.38,199.05,117.13,199.51Zm-.21-.44c.07-.59.06-1.08.11-1.51l.31.63c-1.23-.26-2.45-.53-3.66-.83l-1.82-.44a13.45,13.45,0,0,1-2-.58,6,6,0,0,1-3.36-3.42,6.89,6.89,0,0,1,0-5,6.75,6.75,0,0,1,3.58-3.81,5.33,5.33,0,0,1,1.26-.42l.63-.15.44-.09,1.77-.35c2.36-.46,4.71-.87,7.07-1.25l.48-.08,1.38-.19a10,10,0,0,0,1.28-.35,6.81,6.81,0,0,0,2.15-1.19,6.14,6.14,0,0,0,1.6-1.86,8.09,8.09,0,0,0,.87-2.32l2.23,2.64-1.64-.18,2.53-2.17a8.06,8.06,0,0,1-.48,1.95,10.47,10.47,0,0,1-1,2,7.25,7.25,0,0,1-1.68,2,9.86,9.86,0,0,1-3.89,2,12.89,12.89,0,0,1-3.33.45l.31-.06c-1.7.25-3.09.3-4.6.4l-4.45.26c-3,.16-5.9.46-8.83.8s-5.85.85-8.75,1.47l-4.35.94-1.08.23-.55.12-.75.08c-.57,0-.86,0-1.25,0H86.37l.89-3.8a71.07,71.07,0,0,1,7.3,2.75c2.38,1.06,4.75,2.12,7.15,3.32s4.84,2.42,7.36,3.74S114.17,197.58,116.92,199.07Z"/></g></g></svg>